<?xml version="1.0" standalone="no"?>
<!DOCTYPE svg PUBLIC "-//W3C//DTD SVG 20010904//EN"
 "http://www.w3.org/TR/2001/REC-SVG-20010904/DTD/svg10.dtd">
<svg version="1.0" xmlns="http://www.w3.org/2000/svg"
 width="400.000000pt" height="400.000000pt" viewBox="0 0 400.000000 400.000000"
 preserveAspectRatio="xMidYMid meet">

<g transform="translate(0.000000,400.000000) scale(0.100000,-0.100000)"
fill="#000000" stroke="none">
<path d="M1380 3146 c-261 -58 -490 -234 -632 -486 -38 -67 -77 -190 -88 -276
-25 -200 46 -445 171 -587 l36 -41 -21 -36 c-26 -44 -28 -140 -4 -185 23 -42
67 -85 105 -101 42 -18 125 -18 168 0 30 13 40 12 94 -4 163 -51 388 -52 536
-2 l90 30 59 -44 c71 -53 147 -78 243 -77 63 0 82 5 147 36 72 36 76 37 192
37 66 1 174 9 242 19 110 17 128 17 170 4 26 -8 86 -17 135 -20 150 -10 272
38 317 126 11 22 20 47 20 56 0 9 13 42 30 74 67 134 58 295 -27 464 -51 103
-157 180 -216 158 -19 -7 -33 1 -87 50 -61 56 -188 129 -222 129 -12 0 -17 13
-20 53 -4 48 -2 54 28 83 69 65 54 158 -33 203 -114 59 -221 -103 -129 -195
27 -27 42 -34 74 -34 33 0 41 -4 46 -22 9 -33 7 -66 -3 -72 -13 -9 -267 21
-336 39 -33 9 -76 26 -95 39 -19 12 -46 26 -60 29 -19 5 -29 18 -42 54 -61
171 -244 363 -422 443 -141 64 -328 86 -466 56z m305 -29 c22 -8 59 -18 83
-22 23 -4 42 -11 42 -16 0 -13 -24 -11 -40 4 -12 10 -12 9 0 -6 10 -14 23 -18
45 -14 18 3 38 1 46 -5 11 -8 10 -9 -4 -4 -11 4 -16 2 -11 -5 3 -6 15 -9 25
-6 10 3 23 -1 30 -9 6 -7 20 -16 32 -20 12 -4 28 -13 36 -22 13 -13 12 -14 -9
-8 -14 3 -19 3 -12 0 6 -3 10 -10 6 -15 -3 -5 4 -5 18 0 20 8 31 2 70 -35 26
-24 44 -44 40 -44 -3 0 -1 -5 6 -12 13 -13 16 -32 4 -24 -10 6 -9 -40 1 -50 4
-5 5 0 1 10 -6 15 -4 17 6 11 9 -5 11 -4 6 3 -4 7 -4 17 -1 23 7 11 42 -30 37
-43 -1 -5 3 -8 9 -8 6 0 8 -7 5 -16 -4 -9 -2 -13 5 -8 8 4 9 -1 4 -16 -6 -20
-5 -21 14 -11 15 8 21 8 21 1 0 -6 -7 -13 -15 -16 -16 -6 -11 -24 6 -24 6 0 7
5 4 10 -3 6 -3 10 2 10 10 0 38 -61 35 -76 -1 -7 5 -14 14 -18 8 -3 15 -16 14
-28 -1 -13 -1 -32 0 -43 l1 -20 9 20 c6 13 9 15 9 5 0 -8 -4 -22 -9 -30 -5 -8
-10 -10 -10 -4 0 7 -18 39 -41 73 -23 35 -37 66 -33 73 5 7 2 9 -8 6 -16 -6
-112 85 -101 95 3 3 -5 3 -17 0 -16 -4 -18 -8 -8 -14 21 -14 3 -10 -26 4 -14
8 -24 16 -21 19 3 2 -1 5 -8 5 -6 1 -44 6 -82 12 -79 13 -156 10 -199 -8 -16
-6 -36 -9 -43 -7 -8 3 -11 1 -8 -4 8 -13 -1 -13 -26 0 -28 15 -42 4 -27 -23
10 -20 10 -21 -6 -8 -9 8 -19 11 -23 7 -3 -3 -1 -6 5 -6 7 0 12 -4 12 -10 0
-5 -5 -10 -11 -10 -7 0 -23 -12 -37 -27 -13 -16 -21 -22 -17 -14 5 9 4 12 -3
7 -6 -4 -8 -14 -5 -23 4 -9 2 -14 -3 -10 -6 3 -18 -8 -28 -24 -18 -30 -18 -30
-35 -10 -10 11 -21 18 -25 14 -3 -3 -6 1 -6 9 0 29 -47 48 -125 52 -41 3 -73
1 -70 -4 5 -8 -18 -20 -38 -20 -7 0 -6 5 3 11 12 9 12 10 -3 5 -10 -3 -28 -1
-40 5 l-22 12 20 -23 20 -23 -25 8 c-24 7 -24 7 -5 -9 17 -13 18 -15 3 -16 -9
0 -20 -5 -24 -12 -5 -7 -3 -8 5 -3 7 4 1 -11 -13 -32 -24 -35 -27 -51 -27
-127 l-1 -86 -44 0 c-25 0 -56 -7 -69 -16 -15 -10 -25 -12 -25 -5 0 6 -5 11
-11 11 -5 0 -7 -5 -3 -11 3 -6 -5 -32 -20 -59 -22 -39 -25 -58 -23 -113 1 -36
6 -63 11 -60 4 3 5 -5 1 -18 -7 -21 -6 -22 9 -10 20 17 21 -2 1 -23 -14 -13
-13 -15 4 -13 11 0 17 6 15 12 -3 5 4 -1 16 -14 11 -13 19 -30 16 -37 -3 -9 1
-11 12 -7 14 5 14 3 -3 -17 l-20 -24 26 16 c18 11 30 13 40 6 11 -8 9 -8 -6
-4 -19 6 -19 5 -2 -8 18 -14 24 -32 8 -21 -5 3 -12 1 -16 -5 -3 -5 -2 -10 3
-10 11 0 10 -189 -1 -207 -4 -7 5 -20 24 -33 18 -14 28 -28 25 -37 -3 -8 -2
-12 3 -9 5 3 16 -5 24 -18 9 -13 23 -31 32 -40 18 -17 16 -19 -9 -10 -9 3 -16
12 -16 19 0 13 -62 48 -77 43 -14 -5 -74 45 -62 53 7 4 5 8 -6 12 -9 4 -13 3
-10 -3 3 -6 2 -10 -4 -10 -5 0 -18 13 -28 30 -9 16 -23 30 -29 30 -18 0 -37
27 -24 35 13 8 13 25 -1 25 -5 0 -7 -4 -4 -10 3 -5 2 -10 -3 -10 -12 0 -50 53
-54 76 -2 10 -10 26 -19 34 -18 18 -34 54 -19 45 20 -12 9 17 -14 38 -19 18
-22 26 -14 41 8 14 8 17 -2 11 -10 -6 -11 1 -7 31 4 26 4 32 -2 19 -8 -19 -9
-19 -15 5 -19 77 -25 291 -7 262 4 -6 7 8 7 31 1 23 6 62 13 86 15 55 66 153
75 144 4 -4 4 1 0 11 -5 13 -4 17 4 12 7 -4 10 -2 7 6 -3 8 3 23 14 35 11 11
17 25 13 29 -4 5 1 2 12 -6 32 -25 41 -19 43 24 2 39 1 40 -12 17 -7 -14 -10
-32 -7 -40 4 -12 2 -13 -7 -5 -17 16 14 78 34 70 10 -3 12 0 7 12 -5 15 -3 15
23 -2 l30 -19 -22 24 c-18 21 -19 26 -7 37 14 13 34 8 34 -8 0 -5 -8 -6 -17
-3 -16 6 -16 5 -4 -11 13 -16 15 -16 24 -1 6 11 5 21 -1 27 -16 16 5 51 25 44
8 -3 24 1 36 9 12 8 17 15 11 15 -5 0 -15 -5 -22 -12 -6 -6 -15 -9 -19 -5 -9
10 29 38 44 32 6 -2 14 3 17 11 4 10 2 12 -6 8 -7 -4 -8 -3 -4 4 4 6 14 8 23
5 12 -5 14 -3 8 7 -6 10 -4 12 8 7 10 -4 16 -2 14 6 -1 8 11 11 41 9 23 -2 42
1 42 6 0 6 -9 8 -20 5 -26 -7 -26 9 1 25 16 10 19 10 13 1 -5 -9 -2 -10 12 -4
10 4 27 7 37 7 9 0 15 4 11 9 -3 5 -15 7 -27 4 -17 -4 -16 -2 5 10 20 11 33
12 53 5 21 -8 25 -7 23 6 -4 21 61 43 135 46 31 1 57 6 57 11 0 14 166 1 215
-16z m-46 -336 c7 -5 9 -11 5 -14 -5 -3 -15 1 -22 9 -14 16 -5 18 17 5z m296
-2 c69 -13 140 -46 190 -91 77 -67 175 -244 175 -315 0 -61 -35 -211 -69 -298
-26 -69 -124 -245 -136 -245 -2 0 -21 11 -41 25 -28 19 -50 25 -90 25 l-53 0
34 73 c18 39 48 122 66 182 30 100 34 123 34 243 l1 132 44 45 c24 25 39 45
33 45 -6 0 -27 -18 -47 -40 -33 -37 -56 -45 -56 -19 0 15 -51 91 -57 85 -3 -3
-1 -11 5 -18 16 -21 52 -88 52 -98 0 -6 -43 -67 -95 -135 -52 -69 -95 -130
-95 -136 0 -6 33 33 74 87 41 55 86 113 99 129 l25 30 7 -39 c13 -66 -2 -186
-40 -315 -32 -110 -77 -221 -90 -221 -19 0 -174 65 -222 92 -134 79 -146 91
-148 140 -1 24 -8 54 -14 67 -16 28 -69 61 -100 61 -22 0 -22 1 10 23 18 12
47 42 64 66 26 37 30 51 29 105 0 41 -7 72 -19 93 l-19 32 29 41 c30 43 91 97
135 120 71 38 180 49 285 29z m-519 -106 c-2 -2 -17 3 -35 10 -17 7 -29 16
-25 19 3 4 18 -1 34 -10 16 -9 27 -18 26 -19z m-75 2 c76 -12 154 -94 170
-179 12 -61 -6 -114 -55 -162 -67 -68 -143 -71 -233 -11 -55 37 -102 108 -110
166 -7 49 17 118 51 150 29 27 93 51 121 46 11 -2 36 -6 56 -10z m1089 -165
c17 -9 110 -25 210 -36 92 -9 126 -16 147 -30 12 -8 28 -14 35 -14 9 0 9 3 -2
10 -13 8 -13 10 2 10 24 0 49 -11 43 -20 -2 -4 7 -12 22 -19 23 -11 25 -10 14
3 -10 12 -9 14 9 9 24 -6 72 -65 68 -83 -2 -7 4 -15 12 -17 13 -4 13 -3 0 6
-13 9 -13 11 2 11 9 0 18 3 21 8 2 4 2 1 0 -7 -2 -8 2 -11 12 -7 8 3 14 0 12
-6 -1 -7 10 -18 25 -25 15 -7 29 -22 33 -32 3 -10 15 -21 25 -24 17 -4 19 -9
10 -32 -14 -36 -13 -42 5 -19 13 18 14 17 14 -11 0 -16 3 -45 7 -62 4 -22 2
-33 -5 -33 -6 0 -11 -5 -11 -11 0 -5 5 -7 10 -4 7 4 9 -10 8 -38 -2 -31 -7
-43 -16 -40 -10 4 -10 -1 -2 -23 8 -20 8 -30 1 -32 -6 -2 -11 -10 -11 -18 0
-9 -5 -12 -12 -8 -10 6 -10 4 0 -7 15 -16 16 -33 1 -23 -7 4 -10 1 -7 -7 3 -8
-6 -22 -20 -33 -15 -12 -22 -26 -19 -37 3 -12 1 -17 -6 -12 -6 4 -8 -2 -4 -16
3 -13 3 -21 0 -18 -8 9 -32 -17 -25 -27 3 -5 -2 -6 -11 -3 -49 20 -53 20 -32
3 19 -16 19 -16 -7 -6 -16 5 -28 6 -28 2 0 -4 -5 0 -10 8 -8 13 -10 12 -10 -4
0 -12 5 -16 15 -13 8 4 17 2 20 -3 4 -6 -3 -10 -14 -10 -30 0 -71 21 -71 37 0
20 -28 16 -42 -7 -13 -20 -29 -27 -27 -12 1 4 0 12 -1 17 -1 6 -1 54 0 108 1
67 -2 103 -11 113 -9 11 -10 17 -1 23 7 4 8 12 2 21 -9 13 -10 13 -10 0 -1 -9
-5 -6 -10 8 -5 12 -7 28 -4 36 3 8 1 17 -5 21 -7 4 -8 0 -4 -11 4 -12 3 -15
-5 -10 -7 4 -12 13 -12 19 0 7 -12 20 -27 29 -16 10 -22 18 -15 18 7 0 11 4 7
10 -3 5 -12 7 -20 4 -21 -8 -28 17 -14 52 9 24 12 26 18 12 3 -10 6 12 7 47 0
47 -3 65 -12 65 -7 0 -16 -16 -20 -35 -3 -19 -10 -35 -14 -35 -5 0 -11 -8 -13
-17 -2 -10 -3 -6 -1 10 2 15 -1 27 -8 27 -7 0 -9 -18 -5 -55 4 -38 2 -53 -5
-49 -7 5 -9 -1 -5 -18 4 -17 1 -31 -11 -44 -10 -10 -16 -28 -14 -39 3 -17 1
-18 -8 -5 -9 12 -10 9 -6 -12 4 -17 2 -28 -4 -28 -6 0 -8 5 -4 12 5 7 2 9 -8
5 -21 -7 -56 28 -36 37 7 3 2 3 -11 0 -17 -5 -21 -3 -16 7 6 9 2 11 -13 7 -12
-3 -22 -2 -24 4 -2 5 -29 10 -61 11 -31 1 -57 5 -57 10 0 4 5 7 10 7 6 0 10
12 10 26 0 14 -4 23 -9 20 -5 -4 -4 7 2 23 6 17 14 28 19 25 4 -3 4 5 0 17
-10 27 -4 69 10 69 6 0 8 10 5 22 -3 12 -2 28 3 37 4 9 11 37 15 64 6 39 5 47
-9 47 -9 0 -16 7 -16 15 0 12 9 14 43 10 l42 -5 -42 11 c-24 6 -43 14 -43 20
0 12 7 11 30 -1z m-1311 -113 c1 -5 -3 -5 -9 -2 -5 3 -10 16 -9 28 0 21 1 21
9 2 5 -11 9 -24 9 -28z m5 -32 c49 -21 113 -80 137 -126 36 -72 20 -163 -37
-208 -110 -87 -304 42 -304 202 0 114 97 177 204 132z m192 -93 l44 -7 -34
-27 -34 -28 -21 36 c-24 39 -26 48 -10 39 5 -4 30 -10 55 -13z m1929 -18 c53
-36 70 -58 114 -149 50 -101 64 -169 60 -275 -3 -69 -10 -96 -33 -144 -56
-113 -153 -185 -250 -186 -93 0 -165 57 -181 143 -7 35 -6 36 32 46 107 29
194 207 193 397 -1 79 -7 112 -35 177 -12 28 54 22 100 -9z m-1817 -59 c3 -19
-2 -33 -14 -42 -26 -19 -42 -16 -59 11 -24 36 -5 68 38 64 27 -3 33 -8 35 -33z
m1289 -117 c52 -53 73 -102 80 -188 17 -198 -91 -371 -274 -440 -65 -24 -162
-28 -144 -6 7 8 34 17 61 21 67 9 159 55 196 97 73 83 113 213 94 305 -12 54
-49 118 -82 142 -14 9 -18 20 -14 37 11 42 25 74 34 74 4 0 27 -19 49 -42z
m-1410 -16 c6 -11 28 -27 48 -36 49 -23 104 -14 142 24 15 16 31 30 35 30 5 0
29 -15 55 -34 59 -42 190 -108 260 -131 59 -19 59 -27 5 -77 -16 -15 -37 -43
-47 -63 -11 -24 -27 -40 -46 -47 -21 -7 -28 -15 -24 -26 6 -17 -17 -40 -105
-100 -151 -105 -287 -118 -359 -37 -23 27 -31 45 -31 75 0 33 6 44 42 74 44
38 39 51 -6 15 -38 -30 -59 -75 -51 -110 8 -35 1 -36 -45 -8 -54 33 -80 60
-108 114 -30 59 -40 167 -23 233 l12 42 52 -6 c65 -8 116 11 148 55 27 36 30
37 46 13z m1183 -14 c117 -59 151 -203 73 -306 -26 -34 -78 -72 -100 -72 -6 0
-14 19 -18 43 -12 68 -19 75 -72 75 -35 -1 -56 -7 -77 -25 -37 -31 -57 -26
-78 17 -45 92 -9 202 82 258 67 40 125 43 190 10z m203 -119 c26 -49 29 -61
25 -134 -9 -163 -111 -286 -261 -314 -52 -9 -53 -8 -33 40 7 19 17 55 20 82 7
44 10 49 52 68 97 46 152 176 112 264 -8 19 -8 31 1 51 11 24 13 25 34 11 12
-8 35 -39 50 -68z m-654 -80 c21 -11 52 -43 70 -70 l32 -49 65 0 c54 0 71 4
98 25 38 29 51 32 42 10 -3 -8 -2 -15 3 -15 5 0 14 7 21 15 65 79 91 -146 30
-265 -28 -54 -99 -115 -159 -135 -72 -23 -196 -17 -265 13 -156 70 -222 209
-171 362 17 51 62 105 99 120 38 15 97 11 135 -11z m150 -17 c10 -65 7 -77
-21 -80 -21 -3 -30 3 -43 28 -16 30 -15 31 15 62 34 33 42 32 49 -10z m914 -7
c-3 -9 -8 -14 -10 -11 -3 3 -2 9 2 15 9 16 15 13 8 -4z m-2208 -95 c22 -36
201 -140 298 -173 16 -6 17 -9 2 -37 -9 -16 -34 -42 -57 -58 -35 -23 -52 -27
-109 -27 -59 0 -73 4 -110 30 -55 39 -84 94 -83 160 1 72 39 138 59 105z m885
-18 c0 -13 -12 -22 -22 -16 -10 6 -1 24 13 24 5 0 9 -4 9 -8z m1116 -76 c1
-31 -2 -59 -7 -61 -4 -3 -5 -13 -2 -22 4 -11 3 -14 -5 -9 -8 5 -12 0 -12 -12
0 -35 -45 -69 -102 -75 -29 -4 -64 -4 -77 0 -14 4 -22 2 -18 -3 5 -9 -12 -10
-68 -5 -16 1 -17 3 -6 10 8 5 23 8 33 6 10 -2 16 0 14 4 -3 4 10 22 28 40 19
18 36 29 38 24 3 -4 3 -3 2 4 -2 6 4 17 13 25 9 7 24 27 35 43 12 21 18 25 18
13 0 -10 5 -18 10 -18 6 0 10 7 10 15 0 8 4 15 8 15 5 0 15 12 23 28 36 69 63
60 65 -22z m-1126 12 c0 -18 3 -43 6 -55 10 -36 -58 -63 -170 -69 l-91 -5 66
36 c36 19 87 56 115 80 59 53 74 56 74 13z m1174 -6 c12 -76 79 -144 156 -157
59 -10 143 18 194 66 51 46 59 48 45 12 -38 -103 -188 -159 -358 -135 -45 6
-91 17 -102 23 -19 10 -19 12 -5 28 26 29 46 89 49 146 2 64 12 71 21 17z
m-1868 -9 c-6 -6 -36 9 -36 18 0 5 9 4 20 -3 10 -7 18 -14 16 -15z m225 -124
c9 -5 37 -13 61 -18 25 -6 53 -13 64 -17 16 -5 17 -4 4 6 -12 9 5 10 72 5 58
-4 95 -2 109 5 11 7 59 14 105 16 75 4 83 3 77 -12 -4 -12 -3 -15 5 -10 7 4
12 2 12 -5 0 -6 -8 -9 -20 -6 -11 3 -20 1 -20 -5 0 -5 -4 -6 -10 -3 -5 3 -10
2 -10 -4 0 -25 -203 -56 -302 -46 -109 11 -132 14 -158 19 -14 2 -31 5 -39 5
-11 1 -11 4 0 17 13 16 12 16 -51 0 -3 0 -5 4 -5 9 0 6 4 9 8 7 5 -1 6 2 2 7
-3 6 2 19 12 30 17 20 44 20 84 0z m292 -16 c-7 -2 -21 -2 -30 0 -10 3 -4 5
12 5 17 0 24 -2 18 -5z"/>
<path d="M1513 3123 c9 -2 23 -2 30 0 6 3 -1 5 -18 5 -16 0 -22 -2 -12 -5z"/>
<path d="M1230 3060 c8 -5 20 -10 25 -10 6 0 3 5 -5 10 -8 5 -19 10 -25 10 -5
0 -3 -5 5 -10z"/>
<path d="M1680 3054 c0 -8 5 -12 10 -9 6 4 8 11 5 16 -9 14 -15 11 -15 -7z"/>
<path d="M1926 2942 c-3 -6 -1 -14 5 -17 15 -10 25 3 12 16 -7 7 -13 7 -17 1z"/>
<path d="M2024 2915 c8 -8 18 -15 22 -15 3 0 1 7 -6 15 -7 8 -17 15 -22 15 -5
0 -3 -7 6 -15z"/>
<path d="M1868 2873 c7 -3 16 -2 19 1 4 3 -2 6 -13 5 -11 0 -14 -3 -6 -6z"/>
<path d="M1540 2780 c0 -5 5 -10 11 -10 5 0 7 5 4 10 -3 6 -8 10 -11 10 -2 0
-4 -4 -4 -10z"/>
<path d="M2204 2659 c-3 -6 -1 -16 5 -22 8 -8 11 -5 11 11 0 24 -5 28 -16 11z"/>
<path d="M1086 2608 l-18 -33 21 25 c18 22 26 40 18 40 -1 0 -11 -15 -21 -32z"/>
<path d="M2235 2610 c-3 -5 -1 -10 4 -10 6 0 11 5 11 10 0 6 -2 10 -4 10 -3 0
-8 -4 -11 -10z"/>
<path d="M1071 2544 c0 -11 3 -14 6 -6 3 7 2 16 -1 19 -3 4 -6 -2 -5 -13z"/>
<path d="M1066 2485 c-9 -26 -7 -32 5 -12 6 10 9 21 6 23 -2 3 -7 -2 -11 -11z"/>
<path d="M1020 2446 c0 -9 5 -16 10 -16 6 0 10 4 10 9 0 6 -4 13 -10 16 -5 3
-10 -1 -10 -9z"/>
<path d="M703 2353 c-15 -5 -17 -23 -4 -23 5 0 11 7 15 15 3 8 4 15 3 14 -1 0
-8 -3 -14 -6z"/>
<path d="M680 2313 c0 -5 5 -15 10 -23 8 -12 10 -11 10 8 0 12 -4 22 -10 22
-5 0 -10 -3 -10 -7z"/>
<path d="M700 2251 c0 -6 4 -13 10 -16 6 -3 7 1 4 9 -7 18 -14 21 -14 7z"/>
<path d="M882 2180 c0 -14 2 -19 5 -12 2 6 2 18 0 25 -3 6 -5 1 -5 -13z"/>
<path d="M850 2100 c0 -5 5 -10 11 -10 5 0 7 5 4 10 -3 6 -8 10 -11 10 -2 0
-4 -4 -4 -10z"/>
<path d="M831 1881 c-8 -6 -9 -11 -3 -15 6 -3 14 -1 17 5 9 14 2 20 -14 10z"/>
<path d="M971 1808 c0 -9 -4 -25 -7 -35 -5 -17 -5 -17 6 0 6 10 9 25 7 35 -4
15 -5 15 -6 0z"/>
<path d="M1001 1794 c0 -11 3 -14 6 -6 3 7 2 16 -1 19 -3 4 -6 -2 -5 -13z"/>
<path d="M1717 2743 c-9 -14 -66 -255 -76 -323 -21 -130 -8 -101 24 55 18 88
40 184 49 214 14 49 16 75 3 54z"/>
<path d="M1882 2618 c-67 -122 -150 -314 -140 -324 3 -2 17 29 33 68 15 40 56
129 91 197 70 134 81 178 16 59z"/>
<path d="M1369 2430 c-17 -20 -39 -30 -72 -35 -26 -4 -47 -12 -47 -17 0 -10
74 -1 100 12 23 12 53 48 49 58 -2 6 -15 -3 -30 -18z"/>
<path d="M3070 2261 c0 -6 4 -13 10 -16 6 -3 7 1 4 9 -7 18 -14 21 -14 7z"/>
<path d="M2691 2154 c0 -11 3 -14 6 -6 3 7 2 16 -1 19 -3 4 -6 -2 -5 -13z"/>
<path d="M2572 2125 c0 -16 2 -22 5 -12 2 9 2 23 0 30 -3 6 -5 -1 -5 -18z"/>
<path d="M2745 2120 c3 -5 11 -10 16 -10 6 0 7 5 4 10 -3 6 -11 10 -16 10 -6
0 -7 -4 -4 -10z"/>
<path d="M2403 2113 c9 -2 23 -2 30 0 6 3 -1 5 -18 5 -16 0 -22 -2 -12 -5z"/>
<path d="M2830 1770 c0 -11 4 -20 9 -20 5 0 7 9 4 20 -3 11 -7 20 -9 20 -2 0
-4 -9 -4 -20z"/>
<path d="M1170 2278 c0 -2 7 -21 14 -43 9 -27 11 -47 5 -64 -11 -27 -2 -43 11
-21 20 31 5 130 -20 130 -5 0 -10 -1 -10 -2z"/>
<path d="M1230 1860 c-80 -44 -139 -80 -131 -80 11 0 273 141 290 156 20 18
-37 -9 -159 -76z"/>
<path d="M1413 1785 c-84 -89 -140 -162 -131 -170 3 -3 17 12 31 33 14 21 62
78 107 126 46 47 80 89 78 92 -3 2 -41 -34 -85 -81z"/>
<path d="M1536 1721 c-52 -111 -79 -182 -71 -189 2 -3 8 4 11 14 26 71 49 124
84 194 22 44 36 80 32 80 -5 0 -30 -45 -56 -99z"/>
<path d="M1867 1718 c2 -5 15 -8 28 -8 13 0 26 3 28 8 3 4 -10 7 -28 7 -18 0
-31 -3 -28 -7z"/>
<path d="M2151 1615 c90 -30 101 -77 26 -114 -31 -15 -36 -21 -20 -21 34 0 85
48 81 78 -4 33 -44 61 -93 67 l-40 5 46 -15z"/>
<path d="M2851 1672 c-17 -31 -13 -40 5 -14 9 13 14 26 11 29 -3 2 -10 -4 -16
-15z"/>
<path d="M2805 1510 c-3 -5 -1 -10 4 -10 6 0 11 5 11 10 0 6 -2 10 -4 10 -3 0
-8 -4 -11 -10z"/>
<path d="M2666 1484 c-5 -14 -4 -15 9 -4 17 14 19 20 6 20 -5 0 -12 -7 -15
-16z"/>
<path d="M2770 1486 c0 -2 9 -6 20 -9 11 -3 18 -1 14 4 -5 9 -34 13 -34 5z"/>
<path d="M2710 1470 c8 -5 20 -10 25 -10 6 0 3 5 -5 10 -8 5 -19 10 -25 10 -5
0 -3 -5 5 -10z"/>
<path d="M1322 1465 c-23 -12 -23 -12 9 -19 18 -3 34 -4 37 -1 3 3 -3 5 -14 5
-19 1 -19 1 0 15 25 19 1 19 -32 0z"/>
</g>
</svg>
